<svg width="12" height="14" viewBox="0 0 12 14" fill="none" xmlns="http://www.w3.org/2000/svg">
<path fill-rule="evenodd" clip-rule="evenodd" d="M0 5.82243C0 2.60252 2.69071 0 5.94541 0C9.20928 0 11.9 2.60252 11.9 5.82243C11.9 7.44498 11.3099 8.95133 10.3386 10.2281C9.26716 11.6365 7.9465 12.8635 6.45998 13.8267C6.11975 14.0493 5.81271 14.0661 5.43931 13.8267C3.94431 12.8635 2.62366 11.6365 1.56135 10.2281C0.589388 8.95133 0 7.44498 0 5.82243ZM3.98592 6.00372C3.98592 7.08239 4.86612 7.93077 5.94537 7.93077C7.02533 7.93077 7.914 7.08239 7.914 6.00372C7.914 4.93346 7.02533 4.04378 5.94537 4.04378C4.86612 4.04378 3.98592 4.93346 3.98592 6.00372Z" fill="#2C2D5B"/>
</svg>
