<svg width="260" height="50" viewBox="0 0 260 50" fill="none" xmlns="http://www.w3.org/2000/svg">
<path fill-rule="evenodd" clip-rule="evenodd" d="M25 50C38.8071 50 50 38.8071 50 25C50 11.1929 38.8071 0 25 0C11.1929 0 0 11.1929 0 25C0 38.8071 11.1929 50 25 50Z" fill="#F4F6F9"/>
<path fill-rule="evenodd" clip-rule="evenodd" d="M26.0635 32.8197V24.6589H28.3162L28.6147 21.8466H26.0635L26.0673 20.4391C26.0673 19.7056 26.137 19.3126 27.1905 19.3126H28.5988V16.5H26.3457C23.6395 16.5 22.6869 17.8642 22.6869 20.1585V21.8469H21V24.6592H22.6869V32.8197H26.0635Z" fill="url(#paint0_linear_260_769)"/>
<mask id="mask0_260_769" style="mask-type:luminance" maskUnits="userSpaceOnUse" x="21" y="16" width="8" height="17">
<path fill-rule="evenodd" clip-rule="evenodd" d="M26.0635 32.8197V24.6589H28.3162L28.6147 21.8466H26.0635L26.0673 20.4391C26.0673 19.7056 26.137 19.3126 27.1905 19.3126H28.5988V16.5H26.3457C23.6395 16.5 22.6869 17.8642 22.6869 20.1585V21.8469H21V24.6592H22.6869V32.8197H26.0635Z" fill="white"/>
</mask>
<g mask="url(#mask0_260_769)">
<rect x="10" y="10" width="30" height="30" fill="url(#paint1_linear_260_769)"/>
</g>
<path fill-rule="evenodd" clip-rule="evenodd" d="M95 50C108.807 50 120 38.8071 120 25C120 11.1929 108.807 0 95 0C81.1929 0 70 11.1929 70 25C70 38.8071 81.1929 50 95 50Z" fill="#F4F6F9"/>
<path fill-rule="evenodd" clip-rule="evenodd" d="M94.5508 22.1922L94.5822 22.7112L94.0576 22.6477C92.148 22.404 90.4798 21.5778 89.0633 20.1902L88.3709 19.5017L88.1925 20.0101C87.8148 21.1435 88.0561 22.3405 88.843 23.1455C89.2627 23.5904 89.1683 23.654 88.4443 23.3891C88.1925 23.3044 87.9721 23.2408 87.9512 23.2726C87.8777 23.3468 88.1295 24.3107 88.3289 24.692C88.6017 25.2217 89.1578 25.7407 89.7663 26.0479L90.2804 26.2915L89.6719 26.3021C89.0843 26.3021 89.0633 26.3127 89.1263 26.5351C89.3361 27.2236 90.165 27.9545 91.0883 28.2723L91.7388 28.4947L91.1723 28.8337C90.3329 29.321 89.3466 29.5964 88.3604 29.6175C87.8882 29.6281 87.5 29.6705 87.5 29.7023C87.5 29.8082 88.78 30.4014 89.525 30.6344C91.7598 31.3229 94.4144 31.0264 96.4079 29.8506C97.8243 29.0138 99.2408 27.3507 99.9018 25.7407C100.259 24.8827 100.615 23.315 100.615 22.5629C100.615 22.0757 100.647 22.0121 101.234 21.4295C101.581 21.0906 101.906 20.7198 101.969 20.6139C102.074 20.4126 102.063 20.4126 101.528 20.5927C100.636 20.9105 100.51 20.8681 100.951 20.3915C101.276 20.0525 101.664 19.4381 101.664 19.2581C101.664 19.2263 101.507 19.2792 101.329 19.3746C101.14 19.4805 100.72 19.6394 100.405 19.7347L99.8388 19.9148L99.3247 19.5652C99.0414 19.3746 98.6427 19.1627 98.4329 19.0992C97.8978 18.9509 97.0794 18.9721 96.5967 19.1415C95.2852 19.6182 94.4563 20.8469 94.5508 22.1922Z" fill="url(#paint2_linear_260_769)"/>
<mask id="mask1_260_769" style="mask-type:luminance" maskUnits="userSpaceOnUse" x="87" y="19" width="16" height="12">
<path fill-rule="evenodd" clip-rule="evenodd" d="M94.5508 22.1922L94.5822 22.7112L94.0576 22.6477C92.148 22.404 90.4798 21.5778 89.0633 20.1902L88.3709 19.5017L88.1925 20.0101C87.8148 21.1435 88.0561 22.3405 88.843 23.1455C89.2627 23.5904 89.1683 23.654 88.4443 23.3891C88.1925 23.3044 87.9721 23.2408 87.9512 23.2726C87.8777 23.3468 88.1295 24.3107 88.3289 24.692C88.6017 25.2217 89.1578 25.7407 89.7663 26.0479L90.2804 26.2915L89.6719 26.3021C89.0843 26.3021 89.0633 26.3127 89.1263 26.5351C89.3361 27.2236 90.165 27.9545 91.0883 28.2723L91.7388 28.4947L91.1723 28.8337C90.3329 29.321 89.3466 29.5964 88.3604 29.6175C87.8882 29.6281 87.5 29.6705 87.5 29.7023C87.5 29.8082 88.78 30.4014 89.525 30.6344C91.7598 31.3229 94.4144 31.0264 96.4079 29.8506C97.8243 29.0138 99.2408 27.3507 99.9018 25.7407C100.259 24.8827 100.615 23.315 100.615 22.5629C100.615 22.0757 100.647 22.0121 101.234 21.4295C101.581 21.0906 101.906 20.7198 101.969 20.6139C102.074 20.4126 102.063 20.4126 101.528 20.5927C100.636 20.9105 100.51 20.8681 100.951 20.3915C101.276 20.0525 101.664 19.4381 101.664 19.2581C101.664 19.2263 101.507 19.2792 101.329 19.3746C101.14 19.4805 100.72 19.6394 100.405 19.7347L99.8388 19.9148L99.3247 19.5652C99.0414 19.3746 98.6427 19.1627 98.4329 19.0992C97.8978 18.9509 97.0794 18.9721 96.5967 19.1415C95.2852 19.6182 94.4563 20.8469 94.5508 22.1922Z" fill="white"/>
</mask>
<g mask="url(#mask1_260_769)">
<rect x="80" y="10" width="30" height="30" fill="url(#paint3_linear_260_769)"/>
</g>
<path fill-rule="evenodd" clip-rule="evenodd" d="M165 50C178.807 50 190 38.8071 190 25C190 11.1929 178.807 0 165 0C151.193 0 140 11.1929 140 25C140 38.8071 151.193 50 165 50Z" fill="#F4F6F9"/>
<path d="M156.004 34L157.22 29.5288C156.419 28.1544 155.997 26.5912 156 25C156 20.0293 160.029 16 165 16C169.971 16 174 20.0293 174 25C174 29.9707 169.971 34 165 34C163.41 34.0026 161.847 33.5816 160.473 32.7805L156.004 34ZM161.752 20.7772C161.636 20.7844 161.522 20.815 161.418 20.8672C161.32 20.9225 161.231 20.9916 161.153 21.0724C161.045 21.1741 160.984 21.2623 160.919 21.3478C160.586 21.7807 160.407 22.3121 160.41 22.858C160.412 23.299 160.527 23.7283 160.707 24.1297C161.075 24.9415 161.681 25.801 162.481 26.5975C162.674 26.7892 162.862 26.9818 163.064 27.1609C164.057 28.0352 165.241 28.6657 166.52 29.0023L167.032 29.0806C167.199 29.0896 167.365 29.077 167.533 29.0689C167.795 29.0554 168.051 28.9844 168.282 28.861C168.4 28.8003 168.515 28.7342 168.627 28.663C168.627 28.663 168.666 28.6378 168.74 28.582C168.861 28.492 168.936 28.4281 169.037 28.3228C169.111 28.2454 169.176 28.1545 169.226 28.051C169.296 27.9043 169.366 27.6244 169.395 27.3913C169.416 27.2131 169.41 27.1159 169.407 27.0556C169.404 26.9593 169.324 26.8594 169.236 26.8171L168.713 26.5822C168.713 26.5822 167.93 26.2411 167.452 26.0233C167.401 26.0013 167.347 25.9888 167.292 25.9864C167.231 25.9801 167.169 25.987 167.11 26.0067C167.051 26.0264 166.997 26.0585 166.952 26.1007V26.0989C166.948 26.0989 166.887 26.1502 166.237 26.9386C166.199 26.9888 166.148 27.0267 166.089 27.0475C166.03 27.0684 165.966 27.0712 165.905 27.0556C165.847 27.0399 165.789 27.0201 165.734 26.9962C165.622 26.9494 165.583 26.9314 165.507 26.8981L165.502 26.8963C164.987 26.6715 164.511 26.3679 164.089 25.9963C163.976 25.8973 163.871 25.7893 163.763 25.6849C163.408 25.3458 163.1 24.9622 162.845 24.5437L162.791 24.4582C162.753 24.4007 162.722 24.3388 162.7 24.2737C162.665 24.1414 162.755 24.0352 162.755 24.0352C162.755 24.0352 162.973 23.7958 163.075 23.6662C163.16 23.5585 163.239 23.4464 163.312 23.3305C163.418 23.1595 163.451 22.984 163.395 22.8481C163.143 22.2325 162.882 21.6196 162.614 21.0112C162.561 20.8906 162.404 20.8042 162.26 20.7871C162.212 20.7817 162.163 20.7763 162.115 20.7727C161.994 20.7667 161.873 20.7679 161.752 20.7763V20.7772Z" fill="black"/>
<mask id="mask2_260_769" style="mask-type:luminance" maskUnits="userSpaceOnUse" x="156" y="16" width="18" height="18">
<path d="M156.004 34L157.22 29.5288C156.419 28.1544 155.997 26.5912 156 25C156 20.0293 160.029 16 165 16C169.971 16 174 20.0293 174 25C174 29.9707 169.971 34 165 34C163.41 34.0026 161.847 33.5816 160.473 32.7805L156.004 34ZM161.752 20.7772C161.636 20.7844 161.522 20.815 161.418 20.8672C161.32 20.9225 161.231 20.9916 161.153 21.0724C161.045 21.1741 160.984 21.2623 160.919 21.3478C160.586 21.7807 160.407 22.3121 160.41 22.858C160.412 23.299 160.527 23.7283 160.707 24.1297C161.075 24.9415 161.681 25.801 162.481 26.5975C162.674 26.7892 162.862 26.9818 163.064 27.1609C164.057 28.0352 165.241 28.6657 166.52 29.0023L167.032 29.0806C167.199 29.0896 167.365 29.077 167.533 29.0689C167.795 29.0554 168.051 28.9844 168.282 28.861C168.4 28.8003 168.515 28.7342 168.627 28.663C168.627 28.663 168.666 28.6378 168.74 28.582C168.861 28.492 168.936 28.4281 169.037 28.3228C169.111 28.2454 169.176 28.1545 169.226 28.051C169.296 27.9043 169.366 27.6244 169.395 27.3913C169.416 27.2131 169.41 27.1159 169.407 27.0556C169.404 26.9593 169.324 26.8594 169.236 26.8171L168.713 26.5822C168.713 26.5822 167.93 26.2411 167.452 26.0233C167.401 26.0013 167.347 25.9888 167.292 25.9864C167.231 25.9801 167.169 25.987 167.11 26.0067C167.051 26.0264 166.997 26.0585 166.952 26.1007V26.0989C166.948 26.0989 166.887 26.1502 166.237 26.9386C166.199 26.9888 166.148 27.0267 166.089 27.0475C166.03 27.0684 165.966 27.0712 165.905 27.0556C165.847 27.0399 165.789 27.0201 165.734 26.9962C165.622 26.9494 165.583 26.9314 165.507 26.8981L165.502 26.8963C164.987 26.6715 164.511 26.3679 164.089 25.9963C163.976 25.8973 163.871 25.7893 163.763 25.6849C163.408 25.3458 163.1 24.9622 162.845 24.5437L162.791 24.4582C162.753 24.4007 162.722 24.3388 162.7 24.2737C162.665 24.1414 162.755 24.0352 162.755 24.0352C162.755 24.0352 162.973 23.7958 163.075 23.6662C163.16 23.5585 163.239 23.4464 163.312 23.3305C163.418 23.1595 163.451 22.984 163.395 22.8481C163.143 22.2325 162.882 21.6196 162.614 21.0112C162.561 20.8906 162.404 20.8042 162.26 20.7871C162.212 20.7817 162.163 20.7763 162.115 20.7727C161.994 20.7667 161.873 20.7679 161.752 20.7763V20.7772Z" fill="white"/>
</mask>
<g mask="url(#mask2_260_769)">
<rect x="151" y="11" width="30" height="30" fill="url(#paint4_linear_260_769)"/>
</g>
<path fill-rule="evenodd" clip-rule="evenodd" d="M235 50C248.807 50 260 38.8071 260 25C260 11.1929 248.807 0 235 0C221.193 0 210 11.1929 210 25C210 38.8071 221.193 50 235 50Z" fill="#F4F6F9"/>
<path d="M234.998 21.9987C233.345 21.9987 231.996 23.3474 231.996 25C231.996 26.6526 233.345 28.0013 234.998 28.0013C236.65 28.0013 237.999 26.6526 237.999 25C237.999 23.3474 236.65 21.9987 234.998 21.9987ZM243.999 25C243.999 23.7572 244.011 22.5256 243.941 21.285C243.871 19.844 243.542 18.5652 242.489 17.5114C241.433 16.4555 240.156 16.129 238.715 16.0592C237.472 15.9894 236.241 16.0007 235 16.0007C233.757 16.0007 232.526 15.9894 231.285 16.0592C229.844 16.129 228.565 16.4577 227.511 17.5114C226.455 18.5674 226.129 19.844 226.059 21.285C225.989 22.5278 226.001 23.7594 226.001 25C226.001 26.2406 225.989 27.4744 226.059 28.715C226.129 30.156 226.458 31.4348 227.511 32.4886C228.567 33.5445 229.844 33.871 231.285 33.9408C232.528 34.0106 233.759 33.9993 235 33.9993C236.243 33.9993 237.474 34.0106 238.715 33.9408C240.156 33.871 241.435 33.5423 242.489 32.4886C243.545 31.4326 243.871 30.156 243.941 28.715C244.013 27.4744 243.999 26.2428 243.999 25ZM234.998 29.6179C232.442 29.6179 230.38 27.5555 230.38 25C230.38 22.4445 232.442 20.3821 234.998 20.3821C237.553 20.3821 239.616 22.4445 239.616 25C239.616 27.5555 237.553 29.6179 234.998 29.6179ZM239.805 21.2715C239.208 21.2715 238.726 20.7897 238.726 20.193C238.726 19.5963 239.208 19.1145 239.805 19.1145C240.401 19.1145 240.883 19.5963 240.883 20.193C240.883 20.3347 240.856 20.475 240.801 20.6059C240.747 20.7369 240.668 20.8558 240.568 20.956C240.468 21.0562 240.349 21.1356 240.218 21.1897C240.087 21.2439 239.946 21.2717 239.805 21.2715Z" fill="black"/>
<mask id="mask3_260_769" style="mask-type:luminance" maskUnits="userSpaceOnUse" x="226" y="16" width="19" height="18">
<path d="M234.998 21.9987C233.345 21.9987 231.996 23.3474 231.996 25C231.996 26.6526 233.345 28.0013 234.998 28.0013C236.65 28.0013 237.999 26.6526 237.999 25C237.999 23.3474 236.65 21.9987 234.998 21.9987ZM243.999 25C243.999 23.7572 244.011 22.5256 243.941 21.285C243.871 19.844 243.542 18.5652 242.489 17.5114C241.433 16.4555 240.156 16.129 238.715 16.0592C237.472 15.9894 236.241 16.0007 235 16.0007C233.757 16.0007 232.526 15.9894 231.285 16.0592C229.844 16.129 228.565 16.4577 227.511 17.5114C226.455 18.5674 226.129 19.844 226.059 21.285C225.989 22.5278 226.001 23.7594 226.001 25C226.001 26.2406 225.989 27.4744 226.059 28.715C226.129 30.156 226.458 31.4348 227.511 32.4886C228.567 33.5445 229.844 33.871 231.285 33.9408C232.528 34.0106 233.759 33.9993 235 33.9993C236.243 33.9993 237.474 34.0106 238.715 33.9408C240.156 33.871 241.435 33.5423 242.489 32.4886C243.545 31.4326 243.871 30.156 243.941 28.715C244.013 27.4744 243.999 26.2428 243.999 25ZM234.998 29.6179C232.442 29.6179 230.38 27.5555 230.38 25C230.38 22.4445 232.442 20.3821 234.998 20.3821C237.553 20.3821 239.616 22.4445 239.616 25C239.616 27.5555 237.553 29.6179 234.998 29.6179ZM239.805 21.2715C239.208 21.2715 238.726 20.7897 238.726 20.193C238.726 19.5963 239.208 19.1145 239.805 19.1145C240.401 19.1145 240.883 19.5963 240.883 20.193C240.883 20.3347 240.856 20.475 240.801 20.6059C240.747 20.7369 240.668 20.8558 240.568 20.956C240.468 21.0562 240.349 21.1356 240.218 21.1897C240.087 21.2439 239.946 21.2717 239.805 21.2715Z" fill="white"/>
</mask>
<g mask="url(#mask3_260_769)">
<rect x="218.024" y="7.02637" width="30" height="30" fill="url(#paint5_linear_260_769)"/>
</g>
<defs>
<linearGradient id="paint0_linear_260_769" x1="21" y1="24.6598" x2="28.6147" y2="24.6598" gradientUnits="userSpaceOnUse">
<stop stop-color="#2C2D5B"/>
<stop offset="1" stop-color="#9FA1FF"/>
</linearGradient>
<linearGradient id="paint1_linear_260_769" x1="10" y1="25" x2="40" y2="25" gradientUnits="userSpaceOnUse">
<stop stop-color="#2C2D5B"/>
<stop offset="1" stop-color="#9FA1FF"/>
</linearGradient>
<linearGradient id="paint2_linear_260_769" x1="87.5" y1="25" x2="102.021" y2="25" gradientUnits="userSpaceOnUse">
<stop stop-color="#2C2D5B"/>
<stop offset="1" stop-color="#9FA1FF"/>
</linearGradient>
<linearGradient id="paint3_linear_260_769" x1="80" y1="25" x2="110" y2="25" gradientUnits="userSpaceOnUse">
<stop stop-color="#2C2D5B"/>
<stop offset="1" stop-color="#9FA1FF"/>
</linearGradient>
<linearGradient id="paint4_linear_260_769" x1="151" y1="26" x2="181" y2="26" gradientUnits="userSpaceOnUse">
<stop stop-color="#2C2D5B"/>
<stop offset="1" stop-color="#9FA1FF"/>
</linearGradient>
<linearGradient id="paint5_linear_260_769" x1="218.024" y1="22.0264" x2="248.024" y2="22.0264" gradientUnits="userSpaceOnUse">
<stop stop-color="#2C2D5B"/>
<stop offset="1" stop-color="#9FA1FF"/>
</linearGradient>
</defs>
</svg>
